<svg width="84" height="84" viewBox="0 0 84 84" fill="none" xmlns="http://www.w3.org/2000/svg">
<path d="M25.3334 67C20.75 67 17.0417 70.75 17.0417 75.3333C17.0417 79.9166 20.75 83.6667 25.3334 83.6667C29.9167 83.6667 33.6667 79.9166 33.6667 75.3333C33.6667 70.75 29.9167 67 25.3334 67ZM0.333374 0.333313V8.66665H8.66671L23.6667 40.2916L18.0417 50.5C17.375 51.6666 17 53.0416 17 54.5C17 59.0833 20.75 62.8333 25.3334 62.8333H75.3334V54.5H27.0834C26.5 54.5 26.0417 54.0416 26.0417 53.4583L26.1667 52.9583L29.9167 46.1666H60.9584C64.0834 46.1666 66.8334 44.4583 68.25 41.875L83.1667 14.8333C83.5 14.25 83.6667 13.5416 83.6667 12.8333C83.6667 10.5416 81.7917 8.66665 79.5 8.66665H17.875L13.9584 0.333313H0.333374ZM67 67C62.4167 67 58.7084 70.75 58.7084 75.3333C58.7084 79.9166 62.4167 83.6667 67 83.6667C71.5834 83.6667 75.3334 79.9166 75.3334 75.3333C75.3334 70.75 71.5834 67 67 67Z" fill="#4A90E2"/>
</svg>
